<?xml version="1.0" encoding="UTF-8" standalone="no"?>
<!-- Created with Inkscape (http://www.inkscape.org/) -->

<svg
   xmlns:dc="http://purl.org/dc/elements/1.1/"
   xmlns:cc="http://creativecommons.org/ns#"
   xmlns:rdf="http://www.w3.org/1999/02/22-rdf-syntax-ns#"
   xmlns:svg="http://www.w3.org/2000/svg"
   xmlns="http://www.w3.org/2000/svg"
   xmlns:sodipodi="http://sodipodi.sourceforge.net/DTD/sodipodi-0.dtd"
   xmlns:inkscape="http://www.inkscape.org/namespaces/inkscape"
   width="63mm"
   height="88mm"
   viewBox="0 0 223.22835 311.81102"
   id="svg5250"
   version="1.1"
   inkscape:version="0.91 r13725"
   sodipodi:docname="diamonds-five-hicontrast.svg">
  <defs
     id="defs5252" />
  <sodipodi:namedview
     id="base"
     pagecolor="#ffffff"
     bordercolor="#666666"
     borderopacity="1.0"
     inkscape:pageopacity="0.0"
     inkscape:pageshadow="2"
     inkscape:zoom="0.35"
     inkscape:cx="632.31195"
     inkscape:cy="-326.83945"
     inkscape:document-units="px"
     inkscape:current-layer="layer1"
     showgrid="false"
     fit-margin-top="0"
     fit-margin-left="0"
     fit-margin-right="0"
     fit-margin-bottom="0"
     inkscape:window-width="1920"
     inkscape:window-height="1017"
     inkscape:window-x="-8"
     inkscape:window-y="-8"
     inkscape:window-maximized="1" />
  <metadata
     id="metadata5255">
    <rdf:RDF>
      <cc:Work
         rdf:about="">
        <dc:format>image/svg+xml</dc:format>
        <dc:type
           rdf:resource="http://purl.org/dc/dcmitype/StillImage" />
        <dc:title></dc:title>
      </cc:Work>
    </rdf:RDF>
  </metadata>
  <g
     inkscape:label="Layer 1"
     inkscape:groupmode="layer"
     id="layer1"
     transform="translate(684.45474,106.28826)">
    <g
       id="g12931"
       transform="matrix(0.99553775,0,0,0.99680133,-2197.1101,-124.8764)">
      <g
         transform="translate(1259.5027,-351.1275)"
         id="g6688"
         inkscape:label="5D"
         style="display:inline">
        <rect
           y="370.27557"
           x="260.43304"
           height="311.81104"
           width="223.22835"
           id="rect6690"
           style="display:inline;fill:#ffffff;fill-opacity:1;stroke:#000000;stroke-width:1.0005666;stroke-miterlimit:4;stroke-dasharray:none;stroke-opacity:1"
           rx="10.677567"
           ry="10.664032" />
      </g>
      <path
         style="display:inline;opacity:1;fill:none;stroke:#000000;stroke-width:2.00769162;stroke-miterlimit:2;stroke-dasharray:none;stroke-opacity:1"
         d="m 1537.153,89.121358 c -2.1609,-3.568597 -4.4344,-7.037098 -7.2754,-9.999997 2.841,-2.962801 5.1145,-6.4313 7.2754,-10 2.1609,3.5687 4.4343,7.037199 7.2754,10 -2.8411,2.962899 -5.1145,6.4314 -7.2754,9.999997 z"
         id="path6722"
         inkscape:connector-curvature="0" />
      <path
         style="display:inline;opacity:1;fill:none;stroke:#000000;stroke-width:4.01538324;stroke-linecap:butt;stroke-linejoin:miter;stroke-miterlimit:4;stroke-dasharray:none;stroke-opacity:1"
         d="m 1683.3163,99.84296 c -5.1862,-8.5648 -10.6425,-16.8891 -17.461,-24 6.8185,-7.1108 12.2748,-15.4351 17.461,-24 5.1862,8.5649 10.6424,16.8892 17.4609,24 -6.8185,7.1109 -12.2747,15.4352 -17.4609,24 z"
         id="path6724"
         inkscape:connector-curvature="0" />
      <path
         inkscape:connector-curvature="0"
         id="path6726"
         d="m 1725.9475,280.986 c -2.1609,-3.5686 -4.4344,-7.0371 -7.2754,-10 2.841,-2.9628 5.1145,-6.4313 7.2754,-10 2.1609,3.5687 4.4343,7.0372 7.2754,10 -2.8411,2.9629 -5.1145,6.4314 -7.2754,10 z"
         style="display:inline;opacity:1;fill:none;stroke:#000000;stroke-width:2.00769162;stroke-miterlimit:2;stroke-dasharray:none;stroke-opacity:1" />
      <path
         style="display:inline;opacity:1;fill:none;stroke:#000000;stroke-width:4.01538324;stroke-linecap:butt;stroke-linejoin:miter;stroke-miterlimit:4;stroke-dasharray:none;stroke-opacity:1"
         d="m 1579.7835,99.84296 c -5.1862,-8.5648 -10.6425,-16.8891 -17.461,-24 6.8185,-7.1108 12.2748,-15.4351 17.461,-24 5.1862,8.5649 10.6424,16.8892 17.4609,24 -6.8185,7.1109 -12.2747,15.4352 -17.4609,24 z"
         id="path6728"
         inkscape:connector-curvature="0" />
      <path
         inkscape:connector-curvature="0"
         id="path6736"
         d="m 1631.5499,199.05361 c -5.1862,-8.5648 -10.6425,-16.8891 -17.461,-24 6.8185,-7.1108 12.2748,-15.4351 17.461,-24 5.1862,8.5649 10.6424,16.8892 17.4609,24 -6.8185,7.1109 -12.2747,15.4352 -17.4609,24 z"
         style="display:inline;opacity:1;fill:none;stroke:#000000;stroke-width:4.01538324;stroke-linecap:butt;stroke-linejoin:miter;stroke-miterlimit:4;stroke-dasharray:none;stroke-opacity:1" />
      <path
         inkscape:connector-curvature="0"
         id="path6744"
         d="m 1579.7835,298.26934 c -5.1862,-8.5648 -10.6425,-16.8891 -17.461,-24 6.8185,-7.1108 12.2748,-15.4351 17.461,-24 5.1862,8.5649 10.6424,16.8892 17.4609,24 -6.8185,7.1109 -12.2747,15.4352 -17.4609,24 z"
         style="display:inline;opacity:1;fill:none;stroke:#000000;stroke-width:4.01538324;stroke-linecap:butt;stroke-linejoin:miter;stroke-miterlimit:4;stroke-dasharray:none;stroke-opacity:1" />
      <path
         inkscape:connector-curvature="0"
         id="path6746"
         d="m 1683.3163,298.27628 c -5.1862,-8.5648 -10.6425,-16.8891 -17.461,-24 6.8185,-7.1108 12.2748,-15.4351 17.461,-24 5.1862,8.5649 10.6424,16.8892 17.4609,24 -6.8185,7.1109 -12.2747,15.4352 -17.4609,24 z"
         style="display:inline;opacity:1;fill:none;stroke:#000000;stroke-width:4.01538324;stroke-linecap:butt;stroke-linejoin:miter;stroke-miterlimit:4;stroke-dasharray:none;stroke-opacity:1" />
      <path
         style="opacity:1;fill:#000000;fill-opacity:1"
         inkscape:connector-curvature="0"
         id="path21-9-8-2"
         d="m 1526.7501,57.4426 3.2348,-0.031 c 0.6171,1.9918 1.9825,4.0164 3.8365,4.5782 5.2378,1.2532 8.6076,-1.7286 9.7172,-5.1662 1.3461,-4.1696 -0.03,-10.0246 -3.636,-12.1028 -2.9879,-1.7234 -7.4274,-0.2698 -9.4664,3.4166 l -2.2654,-1.4117 1.2162,-13.7398 14.7995,0 0,3.2477 -11.9928,0 -0.1903,5.724 c 2.5817,-1.8464 6.5493,-1.8268 9.1296,-0.5316 4.8869,2.3742 7.1574,7.7721 6.2086,14.1339 -1.3165,6.3277 -4.2196,9.9133 -10.7676,10.4253 -7.2834,0.067 -9.8548,-5.0339 -9.8239,-8.5422 l 0,0 z m 0,0" />
      <path
         style="opacity:1;fill:#000000;fill-opacity:1"
         inkscape:connector-curvature="0"
         id="path21-3-0-8"
         d="m 1736.3475,292.6648 -3.2348,0.031 c -0.6171,-1.9919 -1.9825,-4.0164 -3.8365,-4.5782 -5.2378,-1.2533 -8.6076,1.7286 -9.7172,5.1661 -1.3461,4.1697 0.03,10.0246 3.636,12.1029 2.9879,1.7234 7.4274,0.2698 9.4664,-3.4166 l 2.2654,1.4117 -1.2162,13.7398 -14.7995,0 0,-3.2477 11.9928,0 0.1903,-5.7241 c -2.5817,1.8465 -6.5493,1.8269 -9.1296,0.5317 -4.8869,-2.3742 -7.1574,-7.7722 -6.2086,-14.1339 1.3165,-6.3278 4.2196,-9.9133 10.7676,-10.4254 7.2834,-0.067 9.8548,5.0339 9.8239,8.5422 l 0,0 z m 0,0" />
    </g>
  </g>
</svg>
