<?xml version="1.0" encoding="UTF-8" standalone="no"?>
<!-- Created with Inkscape (http://www.inkscape.org/) -->

<svg
   xmlns:dc="http://purl.org/dc/elements/1.1/"
   xmlns:cc="http://creativecommons.org/ns#"
   xmlns:rdf="http://www.w3.org/1999/02/22-rdf-syntax-ns#"
   xmlns:svg="http://www.w3.org/2000/svg"
   xmlns="http://www.w3.org/2000/svg"
   xmlns:sodipodi="http://sodipodi.sourceforge.net/DTD/sodipodi-0.dtd"
   xmlns:inkscape="http://www.inkscape.org/namespaces/inkscape"
   width="63mm"
   height="88mm"
   viewBox="0 0 223.22835 311.81102"
   id="svg5250"
   version="1.1"
   inkscape:version="0.91 r13725"
   sodipodi:docname="diamonds-ten-hicontrast.svg">
  <defs
     id="defs5252" />
  <sodipodi:namedview
     id="base"
     pagecolor="#ffffff"
     bordercolor="#666666"
     borderopacity="1.0"
     inkscape:pageopacity="0.0"
     inkscape:pageshadow="2"
     inkscape:zoom="0.35"
     inkscape:cx="387.52564"
     inkscape:cy="-567.31191"
     inkscape:document-units="px"
     inkscape:current-layer="layer1"
     showgrid="false"
     fit-margin-top="0"
     fit-margin-left="0"
     fit-margin-right="0"
     fit-margin-bottom="0"
     inkscape:window-width="1920"
     inkscape:window-height="1017"
     inkscape:window-x="-8"
     inkscape:window-y="-8"
     inkscape:window-maximized="1" />
  <metadata
     id="metadata5255">
    <rdf:RDF>
      <cc:Work
         rdf:about="">
        <dc:format>image/svg+xml</dc:format>
        <dc:type
           rdf:resource="http://purl.org/dc/dcmitype/StillImage" />
        <dc:title></dc:title>
      </cc:Work>
    </rdf:RDF>
  </metadata>
  <g
     inkscape:label="Layer 1"
     inkscape:groupmode="layer"
     id="layer1"
     transform="translate(439.66843,346.76072)">
    <g
       id="g13006"
       transform="matrix(0.99553775,0,0,0.99680133,-3267.554,-365.34886)">
      <g
         transform="translate(2580.6281,-351.1275)"
         id="g7028"
         inkscape:label="5D"
         style="display:inline">
        <rect
           y="370.27557"
           x="260.43304"
           height="311.81104"
           width="223.22835"
           id="rect7030"
           style="display:inline;fill:#ffffff;fill-opacity:1;stroke:#000000;stroke-width:1.0005666;stroke-miterlimit:4;stroke-dasharray:none;stroke-opacity:1"
           rx="10.677567"
           ry="10.664032" />
      </g>
      <path
         style="display:inline;opacity:1;fill:none;stroke:#000000;stroke-width:2.00769162;stroke-miterlimit:2;stroke-dasharray:none;stroke-opacity:1"
         d="m 2858.2784,89.1214 c -2.1609,-3.5686 -4.4344,-7.0371 -7.2754,-10 2.841,-2.9628 5.1145,-6.4313 7.2754,-10 2.1609,3.5687 4.4343,7.0372 7.2754,10 -2.8411,2.9629 -5.1145,6.4314 -7.2754,10 z"
         id="path7062"
         inkscape:connector-curvature="0" />
      <path
         style="display:inline;opacity:1;fill:none;stroke:#000000;stroke-width:4.01538324;stroke-linecap:butt;stroke-linejoin:miter;stroke-miterlimit:4;stroke-dasharray:none;stroke-opacity:1"
         d="m 3004.4417,99.843 c -5.1862,-8.5648 -10.6425,-16.8891 -17.461,-24 6.8185,-7.1108 12.2748,-15.4351 17.461,-24 5.1862,8.5649 10.6424,16.8892 17.4609,24 -6.8185,7.1109 -12.2747,15.4352 -17.4609,24 z"
         id="path7064"
         inkscape:connector-curvature="0" />
      <path
         inkscape:connector-curvature="0"
         id="path7066"
         d="m 3047.0729,280.986 c -2.1609,-3.5686 -4.4344,-7.0371 -7.2754,-10 2.841,-2.9628 5.1145,-6.4313 7.2754,-10 2.1609,3.5687 4.4343,7.0372 7.2754,10 -2.8411,2.9629 -5.1145,6.4314 -7.2754,10 z"
         style="display:inline;opacity:1;fill:none;stroke:#000000;stroke-width:2.00769162;stroke-miterlimit:2;stroke-dasharray:none;stroke-opacity:1" />
      <path
         style="display:inline;opacity:1;fill:none;stroke:#000000;stroke-width:4.01538324;stroke-linecap:butt;stroke-linejoin:miter;stroke-miterlimit:4;stroke-dasharray:none;stroke-opacity:1"
         d="m 2900.9089,99.843 c -5.1862,-8.5648 -10.6425,-16.8891 -17.461,-24 6.8185,-7.1108 12.2748,-15.4351 17.461,-24 5.1862,8.5649 10.6424,16.8892 17.4609,24 -6.8185,7.1109 -12.2747,15.4352 -17.4609,24 z"
         id="path7068"
         inkscape:connector-curvature="0" />
      <path
         style="display:inline;opacity:1;fill:none;stroke:#000000;stroke-width:4.01538324;stroke-linecap:butt;stroke-linejoin:miter;stroke-miterlimit:4;stroke-dasharray:none;stroke-opacity:1"
         d="m 3004.4417,165.9905 c -5.1862,-8.5648 -10.6425,-16.8891 -17.461,-24 6.8185,-7.1108 12.2748,-15.4351 17.461,-24.0001 5.1862,8.565 10.6424,16.8893 17.4609,24.0001 -6.8185,7.1109 -12.2747,15.4352 -17.4609,24 z"
         id="path7070"
         inkscape:connector-curvature="0" />
      <path
         inkscape:connector-curvature="0"
         id="path7072"
         d="m 2900.9089,165.9905 c -5.1862,-8.5648 -10.6425,-16.8891 -17.461,-24 6.8185,-7.1108 12.2748,-15.4351 17.461,-24 5.1862,8.5649 10.6424,16.8892 17.4609,24 -6.8185,7.1109 -12.2747,15.4352 -17.4609,24 z"
         style="display:inline;opacity:1;fill:none;stroke:#000000;stroke-width:4.01538324;stroke-linecap:butt;stroke-linejoin:miter;stroke-miterlimit:4;stroke-dasharray:none;stroke-opacity:1" />
      <path
         inkscape:connector-curvature="0"
         id="path7074"
         d="m 2952.6753,132.9132 c -5.1863,-8.5648 -10.6425,-16.8891 -17.461,-24 6.8185,-7.1108 12.2747,-15.4351 17.461,-24 5.1862,8.5649 10.6424,16.8892 17.4609,24 -6.8185,7.1109 -12.2747,15.4352 -17.4609,24 z"
         style="display:inline;opacity:1;fill:none;stroke:#000000;stroke-width:4.01538324;stroke-linecap:butt;stroke-linejoin:miter;stroke-miterlimit:4;stroke-dasharray:none;stroke-opacity:1" />
      <path
         inkscape:connector-curvature="0"
         id="path7084"
         d="m 2900.9089,298.2693 c -5.1862,-8.5648 -10.6425,-16.8891 -17.461,-24 6.8185,-7.1108 12.2748,-15.4351 17.461,-24 5.1862,8.5649 10.6424,16.8892 17.4609,24 -6.8185,7.1109 -12.2747,15.4352 -17.4609,24 z"
         style="display:inline;opacity:1;fill:none;stroke:#000000;stroke-width:4.01538324;stroke-linecap:butt;stroke-linejoin:miter;stroke-miterlimit:4;stroke-dasharray:none;stroke-opacity:1" />
      <path
         inkscape:connector-curvature="0"
         id="path7086"
         d="m 3004.4417,298.2763 c -5.1862,-8.5648 -10.6425,-16.8891 -17.461,-24 6.8185,-7.1108 12.2748,-15.4351 17.461,-24 5.1862,8.5649 10.6424,16.8892 17.4609,24 -6.8185,7.1109 -12.2747,15.4352 -17.4609,24 z"
         style="display:inline;opacity:1;fill:none;stroke:#000000;stroke-width:4.01538324;stroke-linecap:butt;stroke-linejoin:miter;stroke-miterlimit:4;stroke-dasharray:none;stroke-opacity:1" />
      <path
         inkscape:connector-curvature="0"
         id="path7088"
         d="m 3004.4417,232.1225 c -5.1862,-8.5648 -10.6425,-16.8891 -17.461,-24 6.8185,-7.1108 12.2748,-15.4351 17.461,-24 5.1862,8.5649 10.6424,16.8892 17.4609,24 -6.8185,7.1109 -12.2747,15.4352 -17.4609,24 z"
         style="display:inline;opacity:1;fill:none;stroke:#000000;stroke-width:4.01538324;stroke-linecap:butt;stroke-linejoin:miter;stroke-miterlimit:4;stroke-dasharray:none;stroke-opacity:1" />
      <path
         style="display:inline;opacity:1;fill:none;stroke:#000000;stroke-width:4.01538324;stroke-linecap:butt;stroke-linejoin:miter;stroke-miterlimit:4;stroke-dasharray:none;stroke-opacity:1"
         d="m 2900.9089,232.0903 c -5.1862,-8.5648 -10.6425,-16.8891 -17.461,-24 6.8185,-7.1108 12.2748,-15.4351 17.461,-24 5.1862,8.5649 10.6424,16.8892 17.4609,24 -6.8185,7.1109 -12.2747,15.4352 -17.4609,24 z"
         id="path7090"
         inkscape:connector-curvature="0" />
      <path
         style="display:inline;opacity:1;fill:none;stroke:#000000;stroke-width:4.01538324;stroke-linecap:butt;stroke-linejoin:miter;stroke-miterlimit:4;stroke-dasharray:none;stroke-opacity:1"
         d="m 2952.6753,265.1941 c -5.1862,-8.5648 -10.6425,-16.8891 -17.461,-24 6.8185,-7.1108 12.2748,-15.4351 17.461,-24 5.1862,8.5649 10.6424,16.8892 17.4609,24 -6.8185,7.1109 -12.2747,15.4352 -17.4609,24 z"
         id="path7092"
         inkscape:connector-curvature="0" />
      <g
         id="g8345-9-6-9"
         style="opacity:1;fill:#000000;fill-opacity:1"
         transform="matrix(1,0,0,0.9999803,1809.6754,-489.133)">
        <path
           d="m 1038.5828,555.12975 0,-33 3.1988,0 0,33 -3.1988,0 z m 0,0"
           id="path31-8-2-5"
           inkscape:connector-curvature="0"
           style="fill:#000000;fill-opacity:1" />
        <path
           d="m 1051.2635,522.1291 c -3.0793,0 -5.5542,2.81264 -5.5542,6.30617 l 0,20.38896 c 0,3.49354 2.4762,6.30487 5.5542,6.30487 l 1.7974,0 c 3.0792,0 5.5593,-2.81133 5.5593,-6.30487 l 0,-20.38896 c 0,-3.49353 -2.4814,-6.30617 -5.5593,-6.30617 l -1.7974,0 z m 0.9295,3.12035 c 1.818,0 3.2798,1.39453 3.2798,3.13868 l 0,20.65871 c 0,1.74415 -1.4618,3.15177 -3.2798,3.15177 -1.8179,0 -3.2849,-1.40762 -3.2849,-3.15177 l 0,-20.65871 c 0,-1.74284 1.467,-3.13868 3.2849,-3.13868 l 0,0 z m 0,0"
           id="path33-2-0-3"
           inkscape:connector-curvature="0"
           style="fill:#000000;fill-opacity:1" />
      </g>
      <g
         id="g8345-5-0-8"
         style="opacity:1;fill:#000000;fill-opacity:1"
         transform="matrix(-1,0,0,-0.9999803,4095.6729,839.2403)">
        <path
           d="m 1038.5828,555.12975 0,-33 3.1988,0 0,33 -3.1988,0 z m 0,0"
           id="path31-1-3-1"
           inkscape:connector-curvature="0"
           style="fill:#000000;fill-opacity:1" />
        <path
           d="m 1051.2635,522.1291 c -3.0793,0 -5.5542,2.81264 -5.5542,6.30617 l 0,20.38896 c 0,3.49354 2.4762,6.30487 5.5542,6.30487 l 1.7974,0 c 3.0792,0 5.5593,-2.81133 5.5593,-6.30487 l 0,-20.38896 c 0,-3.49353 -2.4814,-6.30617 -5.5593,-6.30617 l -1.7974,0 z m 0.9295,3.12035 c 1.818,0 3.2798,1.39453 3.2798,3.13868 l 0,20.65871 c 0,1.74415 -1.4618,3.15177 -3.2798,3.15177 -1.8179,0 -3.2849,-1.40762 -3.2849,-3.15177 l 0,-20.65871 c 0,-1.74284 1.467,-3.13868 3.2849,-3.13868 l 0,0 z m 0,0"
           id="path33-5-5-1"
           inkscape:connector-curvature="0"
           style="fill:#000000;fill-opacity:1" />
      </g>
    </g>
  </g>
</svg>
