<?xml version="1.0" encoding="UTF-8" standalone="no"?>
<!-- Created with Inkscape (http://www.inkscape.org/) -->

<svg
   xmlns:dc="http://purl.org/dc/elements/1.1/"
   xmlns:cc="http://creativecommons.org/ns#"
   xmlns:rdf="http://www.w3.org/1999/02/22-rdf-syntax-ns#"
   xmlns:svg="http://www.w3.org/2000/svg"
   xmlns="http://www.w3.org/2000/svg"
   xmlns:sodipodi="http://sodipodi.sourceforge.net/DTD/sodipodi-0.dtd"
   xmlns:inkscape="http://www.inkscape.org/namespaces/inkscape"
   width="63mm"
   height="88mm"
   viewBox="0 0 223.22835 311.81102"
   id="svg5250"
   version="1.1"
   inkscape:version="0.91 r13725"
   sodipodi:docname="diamonds-six-hicontrast.svg">
  <defs
     id="defs5252" />
  <sodipodi:namedview
     id="base"
     pagecolor="#ffffff"
     bordercolor="#666666"
     borderopacity="1.0"
     inkscape:pageopacity="0.0"
     inkscape:pageshadow="2"
     inkscape:zoom="0.35"
     inkscape:cx="595.35469"
     inkscape:cy="-388.0768"
     inkscape:document-units="px"
     inkscape:current-layer="layer1"
     showgrid="false"
     fit-margin-top="0"
     fit-margin-left="0"
     fit-margin-right="0"
     fit-margin-bottom="0"
     inkscape:window-width="1920"
     inkscape:window-height="1017"
     inkscape:window-x="-8"
     inkscape:window-y="-8"
     inkscape:window-maximized="1" />
  <metadata
     id="metadata5255">
    <rdf:RDF>
      <cc:Work
         rdf:about="">
        <dc:format>image/svg+xml</dc:format>
        <dc:type
           rdf:resource="http://purl.org/dc/dcmitype/StillImage" />
        <dc:title></dc:title>
      </cc:Work>
    </rdf:RDF>
  </metadata>
  <g
     inkscape:label="Layer 1"
     inkscape:groupmode="layer"
     id="layer1"
     transform="translate(647.49748,167.52561)">
    <g
       id="g12944"
       transform="matrix(0.99553775,0,0,0.99680133,-2423.1988,-186.11375)">
      <g
         style="display:inline"
         inkscape:label="5D"
         id="g6756"
         transform="translate(1523.7277,-351.1275)">
        <rect
           ry="10.664032"
           rx="10.677567"
           style="display:inline;fill:#ffffff;fill-opacity:1;stroke:#000000;stroke-width:1.0005666;stroke-miterlimit:4;stroke-dasharray:none;stroke-opacity:1"
           id="rect6758"
           width="223.22835"
           height="311.81104"
           x="260.43304"
           y="370.27557" />
      </g>
      <path
         inkscape:connector-curvature="0"
         id="path6790"
         d="m 1801.378,89.121358 c -2.1609,-3.568597 -4.4344,-7.037098 -7.2754,-9.999997 2.841,-2.962801 5.1145,-6.4313 7.2754,-10 2.1609,3.5687 4.4343,7.037199 7.2754,10 -2.8411,2.962899 -5.1145,6.4314 -7.2754,9.999997 z"
         style="display:inline;opacity:1;fill:none;stroke:#000000;stroke-width:2.00769162;stroke-miterlimit:2;stroke-dasharray:none;stroke-opacity:1" />
      <path
         inkscape:connector-curvature="0"
         id="path6792"
         d="m 1947.5413,99.84296 c -5.1862,-8.5648 -10.6425,-16.8891 -17.461,-24 6.8185,-7.1108 12.2748,-15.4351 17.461,-24 5.1862,8.5649 10.6424,16.8892 17.4609,24 -6.8185,7.1109 -12.2747,15.4352 -17.4609,24 z"
         style="display:inline;opacity:1;fill:none;stroke:#000000;stroke-width:4.01538324;stroke-linecap:butt;stroke-linejoin:miter;stroke-miterlimit:4;stroke-dasharray:none;stroke-opacity:1" />
      <path
         style="display:inline;opacity:1;fill:none;stroke:#000000;stroke-width:2.00769162;stroke-miterlimit:2;stroke-dasharray:none;stroke-opacity:1"
         d="m 1990.1725,280.986 c -2.1609,-3.5686 -4.4344,-7.0371 -7.2754,-10 2.841,-2.9628 5.1145,-6.4313 7.2754,-10 2.1609,3.5687 4.4343,7.0372 7.2754,10 -2.8411,2.9629 -5.1145,6.4314 -7.2754,10 z"
         id="path6794"
         inkscape:connector-curvature="0" />
      <path
         inkscape:connector-curvature="0"
         id="path6796"
         d="m 1844.0085,99.84296 c -5.1862,-8.5648 -10.6425,-16.8891 -17.461,-24 6.8185,-7.1108 12.2748,-15.4351 17.461,-24 5.1862,8.5649 10.6424,16.8892 17.4609,24 -6.8185,7.1109 -12.2747,15.4352 -17.4609,24 z"
         style="display:inline;opacity:1;fill:none;stroke:#000000;stroke-width:4.01538324;stroke-linecap:butt;stroke-linejoin:miter;stroke-miterlimit:4;stroke-dasharray:none;stroke-opacity:1" />
      <path
         inkscape:connector-curvature="0"
         id="path6806"
         d="m 1844.0085,199.02127 c -5.1862,-8.5648 -10.6425,-16.8891 -17.461,-24 6.8185,-7.1108 12.2748,-15.4351 17.461,-24 5.1862,8.5649 10.6424,16.8892 17.4609,24 -6.8185,7.1109 -12.2747,15.4352 -17.4609,24 z"
         style="display:inline;opacity:1;fill:none;stroke:#000000;stroke-width:4.01538324;stroke-linecap:butt;stroke-linejoin:miter;stroke-miterlimit:4;stroke-dasharray:none;stroke-opacity:1" />
      <path
         inkscape:connector-curvature="0"
         id="path6808"
         d="m 1947.5413,199.03684 c -5.1862,-8.5648 -10.6425,-16.8891 -17.461,-24 6.8185,-7.1108 12.2748,-15.4351 17.461,-24 5.1862,8.5649 10.6424,16.8892 17.4609,24 -6.8185,7.1109 -12.2747,15.4352 -17.4609,24 z"
         style="display:inline;opacity:1;fill:none;stroke:#000000;stroke-width:4.01538324;stroke-linecap:butt;stroke-linejoin:miter;stroke-miterlimit:4;stroke-dasharray:none;stroke-opacity:1" />
      <path
         style="display:inline;opacity:1;fill:none;stroke:#000000;stroke-width:4.01538324;stroke-linecap:butt;stroke-linejoin:miter;stroke-miterlimit:4;stroke-dasharray:none;stroke-opacity:1"
         d="m 1844.0085,298.26934 c -5.1862,-8.5648 -10.6425,-16.8891 -17.461,-24 6.8185,-7.1108 12.2748,-15.4351 17.461,-24 5.1862,8.5649 10.6424,16.8892 17.4609,24 -6.8185,7.1109 -12.2747,15.4352 -17.4609,24 z"
         id="path6812"
         inkscape:connector-curvature="0" />
      <path
         style="display:inline;opacity:1;fill:none;stroke:#000000;stroke-width:4.01538324;stroke-linecap:butt;stroke-linejoin:miter;stroke-miterlimit:4;stroke-dasharray:none;stroke-opacity:1"
         d="m 1947.5413,298.27628 c -5.1862,-8.5648 -10.6425,-16.8891 -17.461,-24 6.8185,-7.1108 12.2748,-15.4351 17.461,-24 5.1862,8.5649 10.6424,16.8892 17.4609,24 -6.8185,7.1109 -12.2747,15.4352 -17.4609,24 z"
         id="path6814"
         inkscape:connector-curvature="0" />
      <path
         style="opacity:1;fill:#000000;fill-opacity:1"
         inkscape:connector-curvature="0"
         id="path23-5-3-5"
         d="m 1791.6856,55.833 c -0.4063,-2.7774 -0.396,-9.9574 -0.064,-12.0814 1.0247,-6.5069 3.5099,-9.4846 7.6729,-10.4563 4.0435,-0.9468 9.7237,0.1074 10.9695,5.5457 l -3.3801,0.066 c -1.8282,-3.677 -6.4541,-2.6949 -9.0602,-1.0947 -2.0789,1.2741 -3.0188,6.5946 -2.6164,6.922 0,0 3.9317,-2.9123 7.0315,-2.6976 6.6238,0.6901 9.3559,6.4349 9.1244,11.8588 -0.2108,6.5252 -2.2795,11.7436 -9.3006,12.0906 -6.6753,-0.258 -9.7339,-3.8971 -10.3767,-10.1525 l 0,0 z m 16.4631,-1.7233 c 0.036,-4.5269 -2.0185,-7.9198 -5.9102,-8.2917 -3.8879,-0.3745 -7.8106,3.4204 -7.5393,8.0351 0.2713,4.6343 2.0648,8.5327 6.7807,8.5117 5.072,-0.02 6.6444,-5.0324 6.6688,-8.2551 l 0,0 z m 0,0" />
      <path
         style="opacity:1;fill:#000000;fill-opacity:1"
         inkscape:connector-curvature="0"
         id="path23-6-5-6"
         d="m 1999.862,294.2737 c 0.4063,2.7775 0.396,9.9575 0.064,12.0815 -1.0247,6.5069 -3.5099,9.4846 -7.6729,10.4563 -4.0435,0.9468 -9.7237,-0.1074 -10.9695,-5.5457 l 3.3801,-0.065 c 1.8282,3.677 6.4541,2.6949 9.0602,1.0947 2.0789,-1.2741 3.0188,-6.5946 2.6164,-6.922 0,0 -3.9317,2.9123 -7.0315,2.6976 -6.6238,-0.6901 -9.3559,-6.4349 -9.1244,-11.8588 0.2108,-6.5252 2.2795,-11.7435 9.3006,-12.0905 6.6753,0.258 9.7339,3.8971 10.3767,10.1524 l 0,0 z m -16.4631,1.7233 c -0.036,4.527 2.0185,7.9199 5.9102,8.2918 3.8879,0.3745 7.8106,-3.4204 7.5393,-8.0351 -0.2713,-4.6342 -2.0648,-8.5326 -6.7807,-8.5116 -5.072,0.02 -6.6444,5.0324 -6.6688,8.2549 l 0,0 z m 0,0" />
    </g>
  </g>
</svg>
