<?xml version="1.0" encoding="UTF-8" standalone="no"?>
<!-- Created with Inkscape (http://www.inkscape.org/) -->

<svg
   xmlns:dc="http://purl.org/dc/elements/1.1/"
   xmlns:cc="http://creativecommons.org/ns#"
   xmlns:rdf="http://www.w3.org/1999/02/22-rdf-syntax-ns#"
   xmlns:svg="http://www.w3.org/2000/svg"
   xmlns="http://www.w3.org/2000/svg"
   xmlns:sodipodi="http://sodipodi.sourceforge.net/DTD/sodipodi-0.dtd"
   xmlns:inkscape="http://www.inkscape.org/namespaces/inkscape"
   width="63mm"
   height="88mm"
   viewBox="0 0 223.22835 311.81102"
   id="svg5250"
   version="1.1"
   inkscape:version="0.91 r13725"
   sodipodi:docname="diamonds-two-hicontrast.svg">
  <defs
     id="defs5252" />
  <sodipodi:namedview
     id="base"
     pagecolor="#ffffff"
     bordercolor="#666666"
     borderopacity="1.0"
     inkscape:pageopacity="0.0"
     inkscape:pageshadow="2"
     inkscape:zoom="0.35"
     inkscape:cx="488.89797"
     inkscape:cy="-374.55598"
     inkscape:document-units="px"
     inkscape:current-layer="layer1"
     showgrid="false"
     fit-margin-top="0"
     fit-margin-left="0"
     fit-margin-right="0"
     fit-margin-bottom="0"
     inkscape:window-width="1920"
     inkscape:window-height="1017"
     inkscape:window-x="-8"
     inkscape:window-y="-8"
     inkscape:window-maximized="1" />
  <metadata
     id="metadata5255">
    <rdf:RDF>
      <cc:Work
         rdf:about="">
        <dc:format>image/svg+xml</dc:format>
        <dc:type
           rdf:resource="http://purl.org/dc/dcmitype/StillImage" />
        <dc:title></dc:title>
      </cc:Work>
    </rdf:RDF>
  </metadata>
  <g
     inkscape:label="Layer 1"
     inkscape:groupmode="layer"
     id="layer1"
     transform="translate(541.04076,154.0048)">
    <g
       id="g12898"
       transform="matrix(0.99553775,0,0,0.99680133,-1264.5579,-172.59294)">
      <g
         style="display:inline"
         inkscape:label="5D"
         id="g6484"
         transform="translate(466.82736,-351.1275)">
        <rect
           ry="10.664032"
           rx="10.677567"
           style="display:inline;fill:#ffffff;fill-opacity:1;stroke:#000000;stroke-width:1.0005666;stroke-miterlimit:4;stroke-dasharray:none;stroke-opacity:1"
           id="rect6486"
           width="223.22835"
           height="311.81104"
           x="260.43304"
           y="370.27557" />
      </g>
      <path
         style="display:inline;opacity:1;fill:none;stroke:#000000;stroke-width:4.01538324;stroke-linejoin:miter;stroke-miterlimit:4;stroke-dasharray:none;stroke-opacity:1"
         d="m 838.87457,99.84296 c -5.18621,-8.5648 -10.64244,-16.8891 -17.46094,-24 6.8185,-7.1108 12.27473,-15.4351 17.46094,-24 5.18621,8.5649 10.64244,16.8892 17.46094,24 -6.8185,7.1109 -12.27473,15.4352 -17.46094,24 z"
         id="path6516"
         inkscape:connector-curvature="0" />
      <path
         inkscape:connector-curvature="0"
         id="path6518"
         d="m 744.47768,89.121358 c -2.16092,-3.568597 -4.43435,-7.037098 -7.27539,-9.999997 2.84104,-2.962801 5.11447,-6.4313 7.27539,-10 2.16092,3.5687 4.43435,7.037199 7.27539,10 -2.84104,2.962899 -5.11447,6.4314 -7.27539,9.999997 z"
         style="display:inline;opacity:1;fill:none;stroke:#000000;stroke-width:2.00769162;stroke-miterlimit:2;stroke-dasharray:none;stroke-opacity:1" />
      <path
         style="display:inline;opacity:1;fill:none;stroke:#000000;stroke-width:2.00769162;stroke-miterlimit:2;stroke-dasharray:none;stroke-opacity:1"
         d="m 933.27218,280.986 c -2.16092,-3.5686 -4.43435,-7.0371 -7.27539,-10 2.84104,-2.9628 5.11447,-6.4313 7.27539,-10 2.16092,3.5687 4.43435,7.0372 7.27539,10 -2.84104,2.9629 -5.11447,6.4314 -7.27539,10 z"
         id="path6522"
         inkscape:connector-curvature="0" />
      <path
         inkscape:connector-curvature="0"
         id="path6538"
         d="m 838.87457,298.26427 c -5.18621,-8.5648 -10.64245,-16.8891 -17.46094,-24 6.81849,-7.1108 12.27473,-15.4351 17.46094,-24 5.18621,8.5649 10.64244,16.8892 17.46094,24 -6.8185,7.1109 -12.27473,15.4352 -17.46094,24 z"
         style="display:inline;opacity:1;fill:none;stroke:#000000;stroke-width:4.01538324;stroke-linejoin:miter;stroke-miterlimit:4;stroke-dasharray:none;stroke-opacity:1" />
      <path
         style="opacity:1;fill:#000000;fill-opacity:1"
         inkscape:connector-curvature="0"
         id="path15-34-1-4"
         d="m 735.08424,65.9151 0.1608,-2.035 c 0.5078,-6.2883 1.859,-8.4097 9.523,-14.9742 3.7208,-3.1822 4.9409,-4.7523 5.1119,-6.5738 0.4873,-4.2965 -3.3145,-5.6374 -5.7907,-5.6571 -3.2091,-0.029 -6.8399,1.9237 -5.1068,6.4625 l -3.6012,1.0777 c -0.7238,-4.2337 0.021,-8.2054 3.3904,-9.968 4.4999,-2.2982 10.27,-1.3972 13.1834,2.2236 1.9581,2.4291 2.4055,5.7906 1.3551,8.4214 -3.0689,6.7204 -13.4791,9.6773 -14.338,17.4532 l 11.5056,0 0,-4.3293 3.3904,0 0,7.9697 -18.7839,-0.071 z m 0,0" />
      <path
         style="opacity:1;fill:#000000;fill-opacity:1"
         inkscape:connector-curvature="0"
         id="path15-5-4-6"
         d="m 942.66264,284.1922 -0.1608,2.035 c -0.5078,6.2882 -1.859,8.4096 -9.523,14.9742 -3.7208,3.1821 -4.9409,4.7522 -5.1119,6.5738 -0.4873,4.2965 3.3145,5.6374 5.7907,5.6571 3.2091,0.029 6.8399,-1.9237 5.1068,-6.4625 l 3.6012,-1.0777 c 0.7238,4.2336 -0.021,8.2054 -3.3904,9.968 -4.4999,2.2982 -10.27,1.3972 -13.1834,-2.2236 -1.9581,-2.4291 -2.4055,-5.7906 -1.3551,-8.4214 3.0689,-6.7204 13.4791,-9.6773 14.338,-17.4532 l -11.5056,0 0,4.3293 -3.3904,0 0,-7.9697 18.7839,0.071 z m 0,0" />
    </g>
  </g>
</svg>
