<?xml version="1.0" encoding="UTF-8" standalone="no"?>
<!-- Created with Inkscape (http://www.inkscape.org/) -->

<svg
   xmlns:dc="http://purl.org/dc/elements/1.1/"
   xmlns:cc="http://creativecommons.org/ns#"
   xmlns:rdf="http://www.w3.org/1999/02/22-rdf-syntax-ns#"
   xmlns:svg="http://www.w3.org/2000/svg"
   xmlns="http://www.w3.org/2000/svg"
   xmlns:sodipodi="http://sodipodi.sourceforge.net/DTD/sodipodi-0.dtd"
   xmlns:inkscape="http://www.inkscape.org/namespaces/inkscape"
   width="63mm"
   height="88mm"
   viewBox="0 0 223.22835 311.81102"
   id="svg5250"
   version="1.1"
   inkscape:version="0.91 r13725"
   sodipodi:docname="diamonds-seven-hicontrast.svg">
  <defs
     id="defs5252" />
  <sodipodi:namedview
     id="base"
     pagecolor="#ffffff"
     bordercolor="#666666"
     borderopacity="1.0"
     inkscape:pageopacity="0.0"
     inkscape:pageshadow="2"
     inkscape:zoom="0.35"
     inkscape:cx="646.96882"
     inkscape:cy="-380.74272"
     inkscape:document-units="px"
     inkscape:current-layer="layer1"
     showgrid="false"
     fit-margin-top="0"
     fit-margin-left="0"
     fit-margin-right="0"
     fit-margin-bottom="0"
     inkscape:window-width="1920"
     inkscape:window-height="1017"
     inkscape:window-x="-8"
     inkscape:window-y="-8"
     inkscape:window-maximized="1" />
  <metadata
     id="metadata5255">
    <rdf:RDF>
      <cc:Work
         rdf:about="">
        <dc:format>image/svg+xml</dc:format>
        <dc:type
           rdf:resource="http://purl.org/dc/dcmitype/StillImage" />
        <dc:title></dc:title>
      </cc:Work>
    </rdf:RDF>
  </metadata>
  <g
     inkscape:label="Layer 1"
     inkscape:groupmode="layer"
     id="layer1"
     transform="translate(699.11162,160.19153)">
    <g
       id="g12958"
       transform="matrix(0.99553775,0,0,0.99680133,-2737.859,-178.77967)">
      <g
         transform="translate(1787.9528,-351.1275)"
         id="g6824"
         inkscape:label="5D"
         style="display:inline">
        <rect
           y="370.27557"
           x="260.43304"
           height="311.81104"
           width="223.22835"
           id="rect6826"
           style="display:inline;fill:#ffffff;fill-opacity:1;stroke:#000000;stroke-width:1.0005666;stroke-miterlimit:4;stroke-dasharray:none;stroke-opacity:1"
           rx="10.677567"
           ry="10.664032" />
      </g>
      <path
         style="display:inline;opacity:1;fill:none;stroke:#000000;stroke-width:2.00769162;stroke-miterlimit:2;stroke-dasharray:none;stroke-opacity:1"
         d="m 2065.6031,89.121358 c -2.1609,-3.568597 -4.4344,-7.037098 -7.2754,-9.999997 2.841,-2.962801 5.1145,-6.4313 7.2754,-10 2.1609,3.5687 4.4343,7.037199 7.2754,10 -2.8411,2.962899 -5.1145,6.4314 -7.2754,9.999997 z"
         id="path6858"
         inkscape:connector-curvature="0" />
      <path
         style="display:inline;opacity:1;fill:none;stroke:#000000;stroke-width:4.01538324;stroke-linecap:butt;stroke-linejoin:miter;stroke-miterlimit:4;stroke-dasharray:none;stroke-opacity:1"
         d="m 2211.7664,99.84296 c -5.1862,-8.5648 -10.6425,-16.8891 -17.461,-24 6.8185,-7.1108 12.2748,-15.4351 17.461,-24 5.1862,8.5649 10.6424,16.8892 17.4609,24 -6.8185,7.1109 -12.2747,15.4352 -17.4609,24 z"
         id="path6860"
         inkscape:connector-curvature="0" />
      <path
         inkscape:connector-curvature="0"
         id="path6862"
         d="m 2254.3976,280.986 c -2.1609,-3.5686 -4.4344,-7.0371 -7.2754,-10 2.841,-2.9628 5.1145,-6.4313 7.2754,-10 2.1609,3.5687 4.4343,7.0372 7.2754,10 -2.8411,2.9629 -5.1145,6.4314 -7.2754,10 z"
         style="display:inline;opacity:1;fill:none;stroke:#000000;stroke-width:2.00769162;stroke-miterlimit:2;stroke-dasharray:none;stroke-opacity:1" />
      <path
         style="display:inline;opacity:1;fill:none;stroke:#000000;stroke-width:4.01538324;stroke-linecap:butt;stroke-linejoin:miter;stroke-miterlimit:4;stroke-dasharray:none;stroke-opacity:1"
         d="m 2108.2336,99.84296 c -5.1862,-8.5648 -10.6425,-16.8891 -17.461,-24 6.8185,-7.1108 12.2748,-15.4351 17.461,-24 5.1862,8.5649 10.6424,16.8892 17.4609,24 -6.8185,7.1109 -12.2747,15.4352 -17.4609,24 z"
         id="path6864"
         inkscape:connector-curvature="0" />
      <path
         inkscape:connector-curvature="0"
         id="path6870"
         d="m 2160,149.43212 c -5.1862,-8.5648 -10.6425,-16.88911 -17.461,-24 6.8185,-7.1108 12.2748,-15.4351 17.461,-24 5.1862,8.5649 10.6424,16.8892 17.4609,24 -6.8185,7.11089 -12.2747,15.4352 -17.4609,24 z"
         style="display:inline;opacity:1;fill:none;stroke:#000000;stroke-width:4.01538324;stroke-linecap:butt;stroke-linejoin:miter;stroke-miterlimit:4;stroke-dasharray:none;stroke-opacity:1" />
      <path
         style="display:inline;opacity:1;fill:none;stroke:#000000;stroke-width:4.01538324;stroke-linecap:butt;stroke-linejoin:miter;stroke-miterlimit:4;stroke-dasharray:none;stroke-opacity:1"
         d="m 2108.2336,199.02127 c -5.1862,-8.5648 -10.6425,-16.8891 -17.461,-24 6.8185,-7.1108 12.2748,-15.4351 17.461,-24 5.1862,8.5649 10.6424,16.8892 17.4609,24 -6.8185,7.1109 -12.2747,15.4352 -17.4609,24 z"
         id="path6874"
         inkscape:connector-curvature="0" />
      <path
         style="display:inline;opacity:1;fill:none;stroke:#000000;stroke-width:4.01538324;stroke-linecap:butt;stroke-linejoin:miter;stroke-miterlimit:4;stroke-dasharray:none;stroke-opacity:1"
         d="m 2211.7664,199.03684 c -5.1862,-8.5648 -10.6425,-16.8891 -17.461,-24 6.8185,-7.1108 12.2748,-15.4351 17.461,-24 5.1862,8.5649 10.6424,16.8892 17.4609,24 -6.8185,7.1109 -12.2747,15.4352 -17.4609,24 z"
         id="path6876"
         inkscape:connector-curvature="0" />
      <path
         inkscape:connector-curvature="0"
         id="path6880"
         d="m 2108.2336,298.26934 c -5.1862,-8.5648 -10.6425,-16.8891 -17.461,-24 6.8185,-7.1108 12.2748,-15.4351 17.461,-24 5.1862,8.5649 10.6424,16.8892 17.4609,24 -6.8185,7.1109 -12.2747,15.4352 -17.4609,24 z"
         style="display:inline;opacity:1;fill:none;stroke:#000000;stroke-width:4.01538324;stroke-linecap:butt;stroke-linejoin:miter;stroke-miterlimit:4;stroke-dasharray:none;stroke-opacity:1" />
      <path
         inkscape:connector-curvature="0"
         id="path6882"
         d="m 2211.7664,298.27628 c -5.1862,-8.5648 -10.6425,-16.8891 -17.461,-24 6.8185,-7.1108 12.2748,-15.4351 17.461,-24 5.1862,8.5649 10.6424,16.8892 17.4609,24 -6.8185,7.1109 -12.2747,15.4352 -17.4609,24 z"
         style="display:inline;opacity:1;fill:none;stroke:#000000;stroke-width:4.01538324;stroke-linecap:butt;stroke-linejoin:miter;stroke-miterlimit:4;stroke-dasharray:none;stroke-opacity:1" />
      <path
         style="opacity:1;fill:#000000;fill-opacity:1"
         inkscape:connector-curvature="0"
         id="path25-43-4-8"
         d="m 2060.5289,65.9822 c 2.1703,-11.4733 4.4806,-20.0867 10.5465,-29.4347 l -12.3297,0 0,4.0238 -3.2734,0 0,-7.5855 18.0343,0 2.2243,3.5617 c -6.4426,7.0329 -12.3388,29.7673 -11.2948,29.4347 l -3.9072,0 z m 0,0" />
      <path
         style="opacity:1;fill:#000000;fill-opacity:1"
         inkscape:connector-curvature="0"
         id="path25-7-0-7"
         d="m 2259.4688,284.1251 c -2.1703,11.4732 -4.4806,20.0867 -10.5465,29.4347 l 12.3297,0 0,-4.0239 3.2734,0 0,7.5856 -18.0343,0 -2.2243,-3.5617 c 6.4426,-7.0329 12.3388,-29.7673 11.2948,-29.4347 l 3.9072,0 z m 0,0" />
    </g>
  </g>
</svg>
