<?xml version="1.0" encoding="UTF-8" standalone="no"?>
<!-- Created with Inkscape (http://www.inkscape.org/) -->

<svg
   xmlns:dc="http://purl.org/dc/elements/1.1/"
   xmlns:cc="http://creativecommons.org/ns#"
   xmlns:rdf="http://www.w3.org/1999/02/22-rdf-syntax-ns#"
   xmlns:svg="http://www.w3.org/2000/svg"
   xmlns="http://www.w3.org/2000/svg"
   xmlns:sodipodi="http://sodipodi.sourceforge.net/DTD/sodipodi-0.dtd"
   xmlns:inkscape="http://www.inkscape.org/namespaces/inkscape"
   width="63.000175mm"
   height="87.999825mm"
   viewBox="0 0 223.22897 311.8104"
   id="svg5250"
   version="1.1"
   inkscape:version="0.91 r13725"
   sodipodi:docname="hearts-seven-hicontrast.svg">
  <defs
     id="defs5252" />
  <sodipodi:namedview
     id="base"
     pagecolor="#ffffff"
     bordercolor="#666666"
     borderopacity="1.0"
     inkscape:pageopacity="0.0"
     inkscape:pageshadow="2"
     inkscape:zoom="0.35"
     inkscape:cx="478.28505"
     inkscape:cy="-109.51661"
     inkscape:document-units="px"
     inkscape:current-layer="layer1"
     showgrid="false"
     fit-margin-top="0"
     fit-margin-left="0"
     fit-margin-right="0"
     fit-margin-bottom="0"
     inkscape:window-width="1920"
     inkscape:window-height="1017"
     inkscape:window-x="-8"
     inkscape:window-y="-8"
     inkscape:window-maximized="1" />
  <metadata
     id="metadata5255">
    <rdf:RDF>
      <cc:Work
         rdf:about="">
        <dc:format>image/svg+xml</dc:format>
        <dc:type
           rdf:resource="http://purl.org/dc/dcmitype/StillImage" />
        <dc:title></dc:title>
      </cc:Work>
    </rdf:RDF>
  </metadata>
  <g
     inkscape:label="Layer 1"
     inkscape:groupmode="layer"
     id="layer1"
     transform="translate(530.42793,-111.0352)">
    <g
       id="g5331"
       transform="translate(-2578.8136,797.5025)">
      <rect
         ry="10.629921"
         rx="10.62992"
         style="display:inline;opacity:1;fill:#ffffff;fill-opacity:1;stroke:#000000;stroke-width:0.99673378;stroke-miterlimit:4;stroke-dasharray:none;stroke-opacity:1"
         id="rect10074-2"
         width="222.23224"
         height="310.81366"
         x="2048.884"
         y="-685.96893" />
      <path
         id="path10106-2"
         d="m 2066.0244,-616.21947 c 0,0 -2.2148,-3.17958 -5.2024,-6.9179 -1.9987,-2.50166 -3.5966,-5.2105 -3.7452,-7.54374 -0.1703,-2.66533 1.4425,-5.33928 4.3625,-5.46888 2.9184,-0.12952 4.1029,2.05508 4.5851,3.85621 0.4822,-1.80113 1.6668,-3.98573 4.585,-3.85621 2.9201,0.1296 4.533,2.80355 4.3626,5.46888 -0.1485,2.33324 -1.7465,5.04208 -3.7451,7.54374 -2.9877,3.73832 -5.2025,6.9179 -5.2025,6.9179 z"
         style="display:inline;opacity:1;fill:none;stroke:#000000;stroke-width:2;stroke-miterlimit:2;stroke-dasharray:none;stroke-opacity:1"
         inkscape:connector-curvature="0"
         sodipodi:nodetypes="cccscsccc" />
      <path
         id="path10108-3"
         d="m 2253.9764,-444.90457 c 0,0 -2.2147,3.17958 -5.2023,6.91791 -1.9988,2.50166 -3.5966,5.2105 -3.7453,7.54374 -0.1703,2.66533 1.4426,5.33927 4.3626,5.46888 2.9183,0.12951 4.1028,-2.05509 4.585,-3.85622 0.4823,1.80113 1.6669,3.98573 4.5851,3.85622 2.92,-0.12961 4.533,-2.80355 4.3625,-5.46888 -0.1485,-2.33324 -1.7464,-5.04208 -3.7451,-7.54374 -2.9877,-3.73833 -5.2025,-6.91791 -5.2025,-6.91791 z"
         style="display:inline;opacity:1;fill:none;stroke:#000000;stroke-width:2;stroke-miterlimit:2;stroke-dasharray:none;stroke-opacity:1"
         inkscape:connector-curvature="0"
         sodipodi:nodetypes="cccscsccc" />
      <path
         inkscape:connector-curvature="0"
         style="display:inline;opacity:1;fill:none;stroke:#000000;stroke-width:4;stroke-linecap:round;stroke-miterlimit:4;stroke-dasharray:none;stroke-opacity:1"
         d="m 2160,-556.08556 c 0,0 -4.6455,-7.63098 -10.912,-16.60298 -4.1922,-6.004 -7.5438,-12.50521 -7.8554,-18.105 -0.3574,-6.39678 3.0257,-12.81426 9.1504,-13.12529 6.1211,-0.31085 8.6056,4.9322 9.617,9.25491 1.0115,-4.32271 3.496,-9.56576 9.6171,-9.25491 6.1248,0.31103 9.5078,6.72851 9.1504,13.12529 -0.3116,5.59979 -3.6632,12.101 -7.8554,18.105 -6.2665,8.972 -10.9121,16.60298 -10.9121,16.60298 z"
         id="path10110-3"
         sodipodi:nodetypes="cccscsccc" />
      <path
         inkscape:connector-curvature="0"
         style="display:inline;opacity:1;fill:none;stroke:#000000;stroke-width:4;stroke-linecap:round;stroke-miterlimit:4;stroke-dasharray:none;stroke-opacity:1"
         d="m 2108.4646,-605.53216 c 0,0 -4.6455,-7.63099 -10.912,-16.60299 -4.1922,-6.00399 -7.5438,-12.5052 -7.8554,-18.10499 -0.3574,-6.39678 3.0257,-12.81426 9.1504,-13.12529 6.1211,-0.31085 8.6056,4.9322 9.617,9.25491 1.0115,-4.32271 3.496,-9.56576 9.6171,-9.25491 6.1248,0.31103 9.5078,6.72851 9.1504,13.12529 -0.3116,5.59979 -3.6632,12.101 -7.8554,18.10499 -6.2665,8.972 -10.9121,16.60299 -10.9121,16.60299 z"
         id="path10114-8"
         sodipodi:nodetypes="cccscsccc" />
      <path
         inkscape:connector-curvature="0"
         style="display:inline;opacity:1;fill:none;stroke:#000000;stroke-width:3;stroke-linecap:round;stroke-miterlimit:4;stroke-dasharray:none;stroke-opacity:1"
         d="m 2211.5354,-506.63885 c 0,0 -4.6455,-7.63099 -10.912,-16.60299 -4.1922,-6.00399 -7.5438,-12.5052 -7.8554,-18.10499 -0.3574,-6.39678 3.0257,-12.81426 9.1504,-13.12529 6.1211,-0.31085 8.6057,4.9322 9.617,9.25491 1.0115,-4.32271 3.4961,-9.56576 9.6171,-9.25491 6.1248,0.31103 9.5078,6.72851 9.1504,13.12529 -0.3116,5.59979 -3.6632,12.101 -7.8554,18.10499 -6.2665,8.972 -10.9121,16.60299 -10.9121,16.60299 z"
         id="path10116-2"
         sodipodi:nodetypes="cccscsccc" />
      <path
         inkscape:connector-curvature="0"
         style="display:inline;opacity:1;fill:none;stroke:#000000;stroke-width:4;stroke-linecap:round;stroke-miterlimit:4;stroke-dasharray:none;stroke-opacity:1"
         d="m 2211.5354,-605.53216 c 0,0 -4.6455,-7.63099 -10.912,-16.60299 -4.1922,-6.00399 -7.5438,-12.5052 -7.8554,-18.10499 -0.3574,-6.39678 3.0257,-12.81426 9.1504,-13.12529 6.1211,-0.31085 8.6057,4.9322 9.617,9.25491 1.0115,-4.32271 3.4961,-9.56576 9.6171,-9.25491 6.1248,0.31103 9.5078,6.72851 9.1504,13.12529 -0.3116,5.59979 -3.6632,12.101 -7.8554,18.10499 -6.2665,8.972 -10.9121,16.60299 -10.9121,16.60299 z"
         id="path10120-6"
         sodipodi:nodetypes="cccscsccc" />
      <path
         inkscape:connector-curvature="0"
         style="display:inline;opacity:1;fill:none;stroke:#000000;stroke-width:4;stroke-linecap:round;stroke-miterlimit:4;stroke-dasharray:none;stroke-opacity:1"
         d="m 2108.4646,-506.63885 c 0,0 -4.6455,-7.63099 -10.912,-16.60298 -4.1922,-6.00399 -7.5438,-12.5052 -7.8554,-18.10499 -0.3574,-6.39678 3.0257,-12.81426 9.1504,-13.12529 6.1211,-0.31085 8.6056,4.9322 9.617,9.25491 1.0115,-4.32271 3.496,-9.56576 9.6171,-9.25491 6.1248,0.31103 9.5078,6.72851 9.1504,13.12529 -0.3116,5.59979 -3.6632,12.101 -7.8554,18.10499 -6.2665,8.97199 -10.9121,16.60298 -10.9121,16.60298 z"
         id="path10124-1"
         sodipodi:nodetypes="cccscsccc" />
      <path
         id="path10134-7"
         d="m 2211.5354,-455.592 c 0,0 -4.6455,7.63098 -10.912,16.60298 -4.1922,6.004 -7.5438,12.5052 -7.8554,18.10499 -0.3574,6.39679 3.0257,12.81426 9.1504,13.1253 6.1211,0.31085 8.6057,-4.93221 9.617,-9.25492 1.0115,4.32271 3.4961,9.56577 9.6171,9.25492 6.1248,-0.31104 9.5078,-6.72851 9.1504,-13.1253 -0.3116,-5.59979 -3.6632,-12.10099 -7.8554,-18.10499 -6.2665,-8.972 -10.9121,-16.60298 -10.9121,-16.60298 z"
         style="display:inline;opacity:1;fill:none;stroke:#000000;stroke-width:4;stroke-linecap:round;stroke-miterlimit:4;stroke-dasharray:none;stroke-opacity:1"
         inkscape:connector-curvature="0"
         sodipodi:nodetypes="cccscsccc" />
      <path
         inkscape:connector-curvature="0"
         style="display:inline;opacity:1;fill:none;stroke:#000000;stroke-width:4;stroke-linecap:round;stroke-miterlimit:4;stroke-dasharray:none;stroke-opacity:1"
         d="m 2108.4646,-455.592 c 0,0 -4.6455,7.63098 -10.912,16.60298 -4.1922,6.004 -7.5438,12.5052 -7.8554,18.10499 -0.3574,6.39679 3.0257,12.81426 9.1504,13.1253 6.1211,0.31085 8.6056,-4.93221 9.617,-9.25492 1.0115,4.32271 3.496,9.56577 9.6171,9.25492 6.1248,-0.31104 9.5078,-6.72851 9.1504,-13.1253 -0.3116,-5.59979 -3.6632,-12.10099 -7.8554,-18.10499 -6.2665,-8.972 -10.9121,-16.60298 -10.9121,-16.60298 z"
         id="path10136-5"
         sodipodi:nodetypes="cccscsccc" />
      <path
         style="opacity:1;fill:#000000;fill-opacity:1;stroke-width:1;stroke-miterlimit:4;stroke-dasharray:none"
         inkscape:connector-curvature="0"
         id="path25-43-2-3"
         d="m 2060.9729,-639.28461 c 2.1606,-11.4366 4.4606,-20.02245 10.4994,-29.34055 l -12.2746,0 0,4.01093 -3.2588,0 0,-7.56124 17.9538,0 2.2144,3.55031 c -6.4139,7.0104 -12.2838,29.67208 -11.2444,29.34055 l -3.8898,0 z m 0,0" />
      <path
         style="opacity:1;fill:#000000;fill-opacity:1"
         inkscape:connector-curvature="0"
         id="path25-7-0-2-8"
         d="m 2259.0251,-421.83946 c -2.1606,11.4365 -4.4606,20.02245 -10.4995,29.34055 l 12.2747,0 0,-4.01103 3.2588,0 0,7.56134 -17.9538,0 -2.2144,-3.55031 c 6.4139,-7.0104 12.2838,-29.67208 11.2444,-29.34055 l 3.8898,0 z m 0,0" />
    </g>
  </g>
</svg>
